<?xml version="1.0"?>
<svg xmlns="http://www.w3.org/2000/svg" id="Capa_1" enable-background="new 0 0 507.982 507.982" height="512px" viewBox="0 0 507.982 507.982" width="512px" class="hovered-paths"><g><g><path d="m504.116 242.576-52.291-40.616 45.293-48.295c2.558-2.728 3.381-6.654 2.133-10.179s-4.358-6.059-8.063-6.568l-65.592-9.03 15.077-64.47c.852-3.642-.399-7.453-3.243-9.882-2.842-2.428-6.804-3.069-10.267-1.656l-61.318 24.976-19.18-63.372c-1.083-3.579-4.072-6.255-7.749-6.937-3.677-.679-7.426.746-9.72 3.698l-40.616 52.29-48.295-45.291c-2.729-2.559-6.657-3.381-10.179-2.133-3.525 1.249-6.059 4.358-6.568 8.063l-9.029 65.591-64.471-15.075c-3.635-.849-7.435.394-9.863 3.222-2.43 2.83-3.084 6.775-1.695 10.237l24.649 61.475-63.345 19.17c-3.579 1.083-6.255 4.072-6.937 7.749-.681 3.677.746 7.426 3.698 9.72l36.393 28.268c-58.861 4.545-107.818 44.419-125.704 98.449l.028-.002c-4.193 12.66 14.796 18.95 18.989 6.29l.012.076c16.226-48.714 61.947-84.297 115.736-85.228 60.037-1.039 110.545 40.514 123.323 96.441 1.567 6.857 9.398 9.984 15.307 6.169 12.829-8.284 28.2-12.965 44.69-12.604 41.212.903 75.205 33.802 77.361 74.968 2.393 45.704-33.957 83.513-79.138 83.513l-179.34-.005c-53.634 0-99.322-33.986-116.725-81.594-4.577-12.512-23.343-5.648-18.766 6.865 0 0-.018-.013-.052-.037 20.193 55.296 73.257 94.771 135.542 94.771h179.34c37.563 0 70.249-20.869 87.105-51.644 8.555 13.24 23.433 22.03 40.336 22.03 26.468 0 48-21.532 48-48s-21.532-48-48-48c-11.122 0-21.363 3.812-29.51 10.185-2.621-15.984-9.054-30.684-18.344-43.13l47.496 11.107c4.81.903 7.94-.982 9.863-3.222 2.43-2.829 3.084-6.775 1.695-10.237l-24.648-61.475 63.345-19.17c3.579-1.083 6.255-4.072 6.937-7.749.679-3.679-.747-7.428-3.7-9.722zm-34.818-88.483-35.886 38.265c-2.669-16.306-8.261-31.641-16.233-45.44zm-52.504-76.395-11.997 51.297c-10.246-12.55-22.7-23.227-36.764-31.436zm-83.668-39.908 15.233 50.335c-14.752-5.653-30.738-8.79-47.434-8.88zm-92.413 7.275 38.229 35.85c-16.262 2.583-31.564 8.077-45.357 15.934zm-25.544 64.395c-12.562 10.214-23.258 22.635-31.493 36.669l-19.483-48.59zm-41.142 56.761c-5.591 14.641-8.703 30.494-8.82 47.048l-41.116-31.936zm149.514 136.881c-15.092 0-29.394 3.375-42.202 9.401-14.652-44.836-50.675-80.002-96.034-93.464-2.055-67.147 51.634-119.803 114.89-119.803 63.411 0 115 51.589 115 115 0 39.073-20.124 75.664-52.838 96.745-11.924-5.071-25.042-7.879-38.816-7.879zm127.441 92.885c15.439 0 28 12.561 28 28s-12.561 28-28 28-28-12.561-28-28 12.56-28 28-28zm-65.043-77.504c12.54-10.351 23.033-22.829 31.066-36.725l19.463 48.542zm40.591-56.833c5.625-14.926 8.646-30.919 8.662-47.284l41.378 32.14zm-416.529 107.737c-5.523 0-10.001-4.477-10.001-10s4.477-10.001 10.001-10.001c5.523 0 10.001 4.478 10.001 10.001-.001 5.522-4.478 10-10.001 10z" data-original="#000000" class="hovered-path active-path" data-old_color="#000000" fill="#C7F0DB"/></g></g> </svg>
